<svg xmlns="http://www.w3.org/2000/svg" viewBox="0 0 1280 720" width="1280" height="720" font-family="'Helvetica Neue', Arial, sans-serif">
  <defs>
    <linearGradient id="bg" x1="0" y1="0" x2="0.4" y2="1">
      <stop offset="0" stop-color="#0b0803"/>
      <stop offset="0.5" stop-color="#17110a"/>
      <stop offset="1" stop-color="#0a0703"/>
    </linearGradient>
    <radialGradient id="glow" cx="0.82" cy="0.18" r="0.6">
      <stop offset="0" stop-color="#c9a84c" stop-opacity="0.22"/>
      <stop offset="1" stop-color="#c9a84c" stop-opacity="0"/>
    </radialGradient>
    <linearGradient id="gold" x1="0" y1="0" x2="1" y2="1">
      <stop offset="0" stop-color="#f1dd96"/>
      <stop offset="0.5" stop-color="#c9a84c"/>
      <stop offset="1" stop-color="#9a7b2e"/>
    </linearGradient>
  </defs>

  <!-- backdrop -->
  <rect width="1280" height="720" fill="url(#bg)"/>
  <rect width="1280" height="720" fill="url(#glow)"/>
  <rect x="20" y="20" width="1240" height="680" rx="10" fill="none" stroke="#c9a84c" stroke-opacity="0.28" stroke-width="1.5"/>

  <!-- right-side globe / trade-route motif -->
  <g transform="translate(965 372)" fill="none" stroke="#c9a84c" stroke-opacity="0.16" stroke-width="1.5">
    <circle r="188"/>
    <ellipse rx="188" ry="66"/>
    <ellipse rx="120" ry="188"/>
    <ellipse rx="188" ry="130"/>
    <line x1="-188" y1="0" x2="188" y2="0"/>
  </g>
  <g transform="translate(965 372)">
    <g stroke="#c9a84c" stroke-opacity="0.5" stroke-width="1.5" fill="none">
      <path d="M-150 70 Q -40 -70 130 -120"/>
      <path d="M-150 70 Q 0 -10 175 -30"/>
      <path d="M-150 70 Q -10 70 150 80"/>
      <path d="M-150 70 Q -60 120 70 165"/>
      <path d="M-150 70 Q -120 -30 -30 -150"/>
    </g>
    <g fill="#e7cd7a">
      <circle cx="130" cy="-120" r="5"/><circle cx="175" cy="-30" r="5"/>
      <circle cx="150" cy="80" r="5"/><circle cx="70" cy="165" r="5"/>
      <circle cx="-30" cy="-150" r="5"/>
    </g>
    <circle cx="-150" cy="70" r="8" fill="#c9a84c" stroke="#f1dd96" stroke-width="2"/>
  </g>

  <!-- brand bar -->
  <g transform="translate(64 64)">
    <circle cx="34" cy="34" r="32" fill="none" stroke="url(#gold)" stroke-width="2.5"/>
    <text x="34" y="47" text-anchor="middle" font-family="Georgia, 'Times New Roman', serif" font-size="36" fill="url(#gold)">A</text>
    <text x="86" y="28" font-size="22" fill="#c9a84c" letter-spacing="3" font-weight="700">ALPHA IMPORT EXCHANGE</text>
    <text x="87" y="52" font-size="13.5" fill="#b9ae97" letter-spacing="2.5">A.ONOSEKE HOUSE INVESTMENT · RDC</text>
  </g>
  <text x="1216" y="84" text-anchor="end" font-size="15" fill="#8d8470" letter-spacing="4">PUBLICITÉ</text>

  <!-- headline block -->
  <text x="66" y="280" font-size="19" fill="#c9a84c" letter-spacing="4" font-weight="600">FACILITATION D'ACHATS · SOURCING · IMPORTATION</text>
  <text x="62" y="356" font-size="86" font-weight="800" fill="#f5efe2" letter-spacing="0.5">LA PASSERELLE</text>
  <text x="62" y="442" font-size="86" font-weight="800" letter-spacing="0.5" fill="url(#gold)">SÉCURISÉE</text>

  <text x="66" y="500" font-size="29" fill="#e9e2d2">Entre Kinshasa et les géants économiques mondiaux —</text>
  <text x="66" y="540" font-size="29" fill="#e9e2d2">paiement <tspan fill="#e7cd7a" font-weight="700">60/40</tspan>, partenaires certifiés, traçabilité totale.</text>

  <text x="66" y="600" font-size="22" fill="#b9ae97" letter-spacing="2">CHINE   ·   DUBAÏ   ·   TURQUIE   ·   THAÏLANDE   ·   JAPON</text>

  <!-- CTA -->
  <rect x="64" y="628" width="372" height="60" rx="30" fill="url(#gold)"/>
  <text x="250" y="666" text-anchor="middle" font-size="24" font-weight="700" fill="#14100a">Découvrir la plateforme  →</text>
  <text x="1216" y="666" text-anchor="end" font-size="20" fill="#c9a84c" letter-spacing="1">aonosekehouseinvestmentdrc.site</text>
</svg>
